{"asset":{"version":"2.0","generator":"Blockbench 4.9.4 glTF exporter"},"scenes":[{"nodes":[8],"name":"blockbench_export"}],"scene":0,"nodes":[{"translation":[-0.2890625,0.25,-0.25],"name":"front","mesh":0},{"translation":[0.2890625,0.21875,-0.25],"name":"back","mesh":1},{"rotation":[0,0,0.6087614290087207,0.7933533402912352],"translation":[0.5122595264191644,1.1372595264191645,-0.24999999999999992],"name":"antena","mesh":2},{"translation":[-0.1015625,0.5,0.25],"name":"HEAD","children":[0,1,2]},{"rotation":[0,-0.13052619222005157,0,0.9914448613738104],"translation":[-0.08333333333333333,0.05208333333333334,-0.3125],"name":"cuboid","mesh":3},{"rotation":[0,0.13052619222005157,0,0.9914448613738104],"translation":[-0.08333333333333333,0.05208333333333334,0.3125],"name":"cuboid","mesh":4},{"translation":[0,0.0625,0],"name":"FOOTS","children":[4,5]},{"rotation":[0,-0.7071067811865475,0,0.7071067811865476],"name":"MODEL","children":[3,6]},{"children":[7]}],"bufferViews":[{"buffer":0,"byteOffset":0,"byteLength":672,"target":34962,"byteStride":12},{"buffer":0,"byteOffset":672,"byteLength":672,"target":34962,"byteStride":12},{"buffer":0,"byteOffset":1344,"byteLength":448,"target":34962,"byteStride":8},{"buffer":0,"byteOffset":1792,"byteLength":168,"target":34963},{"buffer":0,"byteOffset":1960,"byteLength":288,"target":34962,"byteStride":12},{"buffer":0,"byteOffset":2248,"byteLength":288,"target":34962,"byteStride":12},{"buffer":0,"byteOffset":2536,"byteLength":192,"target":34962,"byteStride":8},{"buffer":0,"byteOffset":2728,"byteLength":72,"target":34963},{"buffer":0,"byteOffset":2800,"byteLength":48,"target":34962,"byteStride":12},{"buffer":0,"byteOffset":2848,"byteLength":48,"target":34962,"byteStride":12},{"buffer":0,"byteOffset":2896,"byteLength":32,"target":34962,"byteStride":8},{"buffer":0,"byteOffset":2928,"byteLength":12,"target":34963},{"buffer":0,"byteOffset":2940,"byteLength":480,"target":34962,"byteStride":12},{"buffer":0,"byteOffset":3420,"byteLength":480,"target":34962,"byteStride":12},{"buffer":0,"byteOffset":3900,"byteLength":320,"target":34962,"byteStride":8},{"buffer":0,"byteOffset":4220,"byteLength":120,"target":34963},{"buffer":0,"byteOffset":4340,"byteLength":480,"target":34962,"byteStride":12},{"buffer":0,"byteOffset":4820,"byteLength":480,"target":34962,"byteStride":12},{"buffer":0,"byteOffset":5300,"byteLength":320,"target":34962,"byteStride":8},{"buffer":0,"byteOffset":5620,"byteLength":120,"target":34963}],"buffers":[{"byteLength":5740,"uri":"data:application/octet-stream;base64,"}],"accessors":[{"bufferView":0,"componentType":5126,"count":56,"max":[0.265625,0.5,0.5],"min":[-0.109375,-0.5,-0.5],"type":"VEC3"},{"bufferView":1,"componentType":5126,"count":56,"max":[1,1,1],"min":[-1,-1,-1],"type":"VEC3"},{"bufferView":2,"componentType":5126,"count":56,"max":[0.46875,0.5],"min":[0,0],"type":"VEC2"},{"bufferView":3,"componentType":5123,"count":84,"max":[55],"min":[0],"type":"SCALAR"},{"bufferView":4,"componentType":5126,"count":24,"max":[0.3125,0.53125,0.5],"min":[-0.3125,-0.46875,-0.5],"type":"VEC3"},{"bufferView":5,"componentType":5126,"count":24,"max":[1,0.9805806875228882,1],"min":[-1,-1,-1],"type":"VEC3"},{"bufferView":6,"componentType":5126,"count":24,"max":[0.453125,0.390625],"min":[0,0],"type":"VEC2"},{"bufferView":7,"componentType":5123,"count":36,"max":[23],"min":[0],"type":"SCALAR"},{"bufferView":8,"componentType":5126,"count":4,"max":[0.5,0.1875,0.5],"min":[-0.5,0.1875,-0.5],"type":"VEC3"},{"bufferView":9,"componentType":5126,"count":4,"max":[0,1,0],"min":[0,1,0],"type":"VEC3"},{"bufferView":10,"componentType":5126,"count":4,"max":[0.265625,0.125],"min":[0.140625,0],"type":"VEC2"},{"bufferView":11,"componentType":5123,"count":6,"max":[3],"min":[0],"type":"SCALAR"},{"bufferView":12,"componentType":5126,"count":40,"max":[0.4583333432674408,0.1354166716337204,0.125],"min":[-0.2916666567325592,-0.1145833358168602,-0.25],"type":"VEC3"},{"bufferView":13,"componentType":5126,"count":40,"max":[1,1,1],"min":[-1,-1,-1],"type":"VEC3"},{"bufferView":14,"componentType":5126,"count":40,"max":[0.5078125,0.453125],"min":[0.0010312499944120646,0.0234375],"type":"VEC2"},{"bufferView":15,"componentType":5123,"count":60,"max":[39],"min":[0],"type":"SCALAR"},{"bufferView":16,"componentType":5126,"count":40,"max":[0.4583333432674408,0.1354166716337204,0.25],"min":[-0.2916666567325592,-0.1145833358168602,-0.125],"type":"VEC3"},{"bufferView":17,"componentType":5126,"count":40,"max":[1,1,1],"min":[-1,-1,-1],"type":"VEC3"},{"bufferView":18,"componentType":5126,"count":40,"max":[0.53125,0.46875],"min":[0,0],"type":"VEC2"},{"bufferView":19,"componentType":5123,"count":60,"max":[39],"min":[0],"type":"SCALAR"}],"materials":[{"pbrMetallicRoughness":{"metallicFactor":0,"roughnessFactor":1,"baseColorTexture":{"index":0}},"alphaMode":"MASK","alphaCutoff":0.05,"doubleSided":true}],"textures":[{"sampler":0,"source":0}],"samplers":[{"magFilter":9728,"minFilter":9728,"wrapS":33071,"wrapT":33071}],"images":[{"mimeType":"image/png","uri":"data:image/png;base64,"}],"meshes":[{"primitives":[{"mode":4,"attributes":{"POSITION":0,"NORMAL":1,"TEXCOORD_0":2},"indices":3,"material":0}]},{"primitives":[{"mode":4,"attributes":{"POSITION":4,"NORMAL":5,"TEXCOORD_0":6},"indices":7,"material":0}]},{"primitives":[{"mode":4,"attributes":{"POSITION":8,"NORMAL":9,"TEXCOORD_0":10},"indices":11,"material":0}]},{"primitives":[{"mode":4,"attributes":{"POSITION":12,"NORMAL":13,"TEXCOORD_0":14},"indices":15,"material":0}]},{"primitives":[{"mode":4,"attributes":{"POSITION":16,"NORMAL":17,"TEXCOORD_0":18},"indices":19,"material":0}]}]}